<?xml version="1.0" encoding="UTF-8"?>
<!DOCTYPE svg PUBLIC "-//W3C//DTD SVG 1.1//EN" "http://www.w3.org/Graphics/SVG/1.1/DTD/svg11.dtd">
<!-- Creator: CorelDRAW X8 -->
<svg xmlns="http://www.w3.org/2000/svg" xml:space="preserve" width="178.843mm" height="169.156mm" version="1.1" style="shape-rendering:geometricPrecision; text-rendering:geometricPrecision; image-rendering:optimizeQuality; fill-rule:evenodd; clip-rule:evenodd"
viewBox="0 0 17759 16797"
 xmlns:xlink="http://www.w3.org/1999/xlink">
 <defs>
  <style type="text/css">
   <![CDATA[
    .fil0 {fill:#373435}
    .fil3 {fill:#F16847}
    .fil1 {fill:#8FC74A}
    .fil2 {fill:#00A5D6}
   ]]>
  </style>
 </defs>
 <g id="Camada_x0020_1">
  <metadata id="CorelCorpID_0Corel-Layer"/>
  <path class="fil0" d="M1271 14186c-26,16 -49,29 -67,37 -21,10 -36,18 -52,23 -36,16 -75,26 -114,31 -41,8 -85,10 -132,10 -83,0 -163,-18 -243,-51 -78,-34 -148,-81 -207,-140 -62,-65 -109,-137 -140,-223 -34,-83 -49,-176 -49,-274 0,-200 62,-365 186,-497 124,-130 280,-195 466,-195 60,0 119,8 174,21 54,16 106,36 155,65l-39 -277c-52,-16 -103,-26 -153,-34 -49,-8 -98,-13 -147,-13 -124,0 -241,24 -352,68 -109,44 -205,108 -290,191 -88,88 -156,189 -200,300 -44,114 -67,236 -67,371 0,163 34,313 101,445 67,132 163,243 290,331 72,50 155,88 246,114 88,26 184,39 285,39 57,0 111,-5 163,-15 52,-11 101,-26 153,-50l33 -277z"/>
  <path class="fil0" d="M1639 13842c0,-140 39,-254 119,-339 81,-88 184,-132 308,-132 47,0 88,8 127,23 39,13 75,36 109,65l-663 406 0 -23zm938 228c-94,72 -179,127 -262,163 -80,36 -158,54 -230,54 -81,0 -156,-18 -223,-54 -67,-36 -119,-85 -153,-148l950 -587c-62,-112 -145,-200 -248,-259 -101,-60 -215,-88 -345,-88 -93,0 -181,15 -261,49 -80,31 -153,80 -218,145 -64,65 -113,137 -150,223 -33,82 -51,173 -51,266 0,94 18,184 54,267 34,83 85,158 153,223 64,64 139,114 222,147 86,34 174,49 272,49 88,0 179,-18 269,-51 91,-34 182,-86 272,-153l-51 -246z"/>
  <path class="fil0" d="M3070 14489l0 -714c0,-140 26,-244 76,-311 49,-67 126,-101 230,-101 88,0 150,26 186,75 39,52 57,137 57,259l0 816 246 -24 0 -776c0,-192 -36,-332 -106,-422 -70,-91 -181,-138 -329,-138 -72,0 -139,19 -202,52 -62,34 -114,83 -158,145l0 -191 -246 23 0 1331 246 -24z"/>
  <path class="fil0" d="M4166 12850l0 332 -130 0 -64 223 194 0 0 528c0,217 33,370 103,455 68,86 184,127 347,127 18,0 42,0 68,-2 23,-3 51,-6 80,-11l62 -235c-26,7 -49,13 -75,18 -23,2 -47,5 -70,5 -104,0 -173,-21 -210,-60 -39,-41 -57,-139 -57,-300l0 -525 350 0 0 -223 -350 0 0 -391 -248 59z"/>
  <path class="fil0" d="M5191 14489l0 -445c0,-238 31,-404 93,-502 62,-99 171,-156 321,-169l109 -227c-8,0 -13,-3 -24,-3 -7,0 -18,0 -33,0 -112,0 -205,23 -280,70 -78,49 -140,119 -186,217l0 -277 -249 29 0 1331 249 -24z"/>
  <path class="fil0" d="M6058 13505c86,-85 192,-129 321,-129 130,0 236,44 321,132 86,86 130,194 130,326 0,132 -44,241 -130,329 -85,88 -194,132 -321,132 -129,0 -235,-44 -321,-132 -85,-85 -127,-197 -127,-329 0,-132 42,-240 127,-329l0 0zm-326 596c34,83 85,158 153,223 64,64 140,114 225,147 83,34 173,49 269,49 93,0 184,-18 269,-51 83,-34 158,-81 226,-145 67,-65 119,-140 155,-223 34,-83 52,-171 52,-267 0,-93 -18,-181 -54,-266 -37,-83 -86,-158 -153,-223 -65,-62 -140,-109 -226,-142 -85,-34 -176,-52 -269,-52 -93,0 -184,18 -269,52 -83,33 -158,80 -225,145 -68,64 -119,139 -153,222 -36,80 -54,171 -54,264 0,94 18,184 54,267l0 0z"/>
  <polygon class="fil0" points="8733,14489 8808,14243 8013,14243 8013,13671 8598,13671 8598,13438 8013,13438 8013,12944 8748,12944 8691,12711 7757,12711 7757,14489 "/>
  <path class="fil0" d="M9038 14466c75,36 166,54 267,54 129,0 235,-38 321,-116 85,-78 127,-176 127,-293 0,-90 -29,-171 -83,-235 -55,-68 -130,-114 -228,-140 -16,-5 -39,-10 -67,-18 -179,-47 -267,-109 -267,-189 0,-47 18,-86 52,-117 36,-28 83,-44 140,-44 46,0 88,11 129,29 41,18 85,52 137,98l143 -160c-57,-60 -119,-107 -189,-138 -68,-31 -140,-46 -218,-46 -127,0 -230,36 -311,109 -80,75 -121,168 -121,284 0,96 26,171 75,228 49,60 132,104 243,140 23,8 55,16 96,28 148,42 223,101 223,177 0,56 -21,101 -60,134 -39,34 -91,52 -158,52 -52,0 -101,-10 -145,-34 -41,-20 -85,-59 -132,-108l-163 145c52,72 114,126 189,160l0 0z"/>
  <path class="fil0" d="M10312 13508c86,-85 189,-129 316,-129 127,0 233,44 316,129 86,88 127,197 127,326 0,132 -41,241 -127,327 -85,88 -189,132 -316,132 -127,0 -233,-44 -316,-130 -85,-88 -126,-197 -126,-329 0,-129 41,-238 126,-326l0 0zm-124 1432l0 -624c62,67 132,119 210,153 78,33 158,51 243,51 88,0 171,-18 254,-51 83,-34 158,-83 223,-145 67,-65 119,-140 155,-223 34,-83 52,-171 52,-267 0,-93 -18,-184 -55,-266 -33,-83 -85,-158 -152,-223 -62,-62 -135,-109 -213,-142 -80,-34 -163,-50 -248,-50 -91,0 -176,19 -251,52 -78,34 -151,88 -218,158l0 -204 -246 23 0 1781 246 -23z"/>
  <path class="fil0" d="M11832 13505c85,-85 192,-129 321,-129 129,0 236,44 321,132 86,86 130,194 130,326 0,132 -44,241 -130,329 -85,88 -194,132 -321,132 -129,0 -236,-44 -321,-132 -85,-85 -127,-197 -127,-329 0,-132 42,-240 127,-329l0 0zm-326 596c33,83 85,158 153,223 64,64 139,114 225,147 83,34 173,49 269,49 93,0 184,-18 269,-51 83,-34 158,-81 226,-145 67,-65 119,-140 155,-223 34,-83 52,-171 52,-267 0,-93 -18,-181 -55,-266 -36,-83 -85,-158 -152,-223 -65,-62 -140,-109 -226,-142 -85,-34 -176,-52 -269,-52 -93,0 -184,18 -269,52 -83,33 -158,80 -225,145 -68,64 -120,139 -153,222 -36,80 -55,171 -55,264 0,94 19,184 55,267l0 0z"/>
  <path class="fil0" d="M13297 14489l0 -445c0,-238 31,-404 93,-502 62,-99 171,-156 321,-169l109 -227c-8,0 -13,-3 -23,-3 -8,0 -18,0 -34,0 -111,0 -204,23 -280,70 -77,49 -139,119 -186,217l0 -277 -249 29 0 1331 249 -24z"/>
  <path class="fil0" d="M13948 12850l0 332 -129 0 -65 223 194 0 0 528c0,217 34,370 104,455 67,86 184,127 347,127 18,0 41,0 67,-2 24,-3 52,-6 81,-11l62 -235c-26,7 -50,13 -75,18 -24,2 -47,5 -70,5 -104,0 -174,-21 -210,-60 -39,-41 -57,-139 -57,-300l0 -525 350 0 0 -223 -350 0 0 -391 -249 59z"/>
  <path class="fil0" d="M15038 12817l-166 -205 -168 205 174 207 160 -207zm-41 1672l0 -1330 -251 23 0 1331 251 -24z"/>
  <path class="fil0" d="M16345 13195l-230 -44 -337 766c-8,21 -18,47 -23,73 -8,26 -16,54 -21,85 -2,-26 -10,-54 -18,-83 -8,-28 -21,-57 -34,-88l-354 -753 -226 44 627 1346 616 -1346z"/>
  <path class="fil0" d="M16736 13505c85,-85 192,-129 321,-129 129,0 236,44 321,132 85,86 129,194 129,326 0,132 -44,241 -129,329 -85,88 -194,132 -321,132 -129,0 -236,-44 -321,-132 -86,-85 -127,-197 -127,-329 0,-132 41,-240 127,-329l0 0zm-326 596c33,83 85,158 152,223 65,64 140,114 226,147 83,34 173,49 269,49 93,0 184,-18 269,-51 83,-34 158,-81 225,-145 68,-65 120,-140 156,-223 33,-83 52,-171 52,-267 0,-93 -19,-181 -55,-266 -36,-83 -85,-158 -153,-223 -64,-62 -139,-109 -225,-142 -85,-34 -176,-52 -269,-52 -93,0 -184,18 -269,52 -83,33 -158,80 -226,145 -67,64 -119,139 -152,222 -37,80 -55,171 -55,264 0,94 18,184 55,267l0 0z"/>
  <path class="fil0" d="M251 16278c-31,-31 -47,-69 -47,-115 0,-46 16,-85 47,-115 32,-31 72,-46 119,-46 48,0 87,15 118,46 32,31 48,69 48,115 0,46 -16,85 -47,115 -32,31 -71,46 -119,46 -47,0 -87,-15 -119,-46l0 0zm521 45l-227 0c24,-23 43,-48 55,-76 13,-29 19,-58 19,-89 0,-32 -6,-62 -19,-92 -12,-30 -30,-58 -52,-81 -24,-25 -51,-43 -81,-57 -30,-12 -62,-19 -97,-19 -34,0 -67,7 -97,20 -30,13 -58,31 -81,56 -23,22 -40,49 -52,77 -12,29 -18,59 -18,90 0,33 7,65 19,92 12,28 32,54 57,79l-74 0 8 89 648 0 -8 -89z"/>
  <path class="fil0" d="M378 15747c-18,-21 -26,-48 -26,-82 0,-33 8,-61 26,-81 18,-20 41,-30 70,-30 29,0 52,10 69,32 16,20 24,50 24,87 0,31 -8,57 -25,76 -18,18 -40,28 -68,28 -29,0 -52,-11 -70,-30l0 0zm243 -198l-13 -78 -298 0c-66,0 -114,14 -144,42 -30,28 -45,74 -45,136 0,19 2,41 5,65 4,22 8,47 16,74l92 22c-12,-28 -21,-54 -26,-77 -6,-22 -9,-44 -9,-64 0,-38 7,-65 20,-83 13,-18 34,-27 62,-27l37 0c-15,19 -25,39 -33,60 -7,20 -10,43 -10,68 0,52 16,95 49,128 33,33 75,50 127,50 52,0 94,-16 124,-48 31,-32 46,-75 46,-131 0,-27 -5,-52 -14,-76 -9,-22 -24,-43 -41,-61l55 0z"/>
  <path class="fil0" d="M608 15289l-162 0c-87,0 -147,-11 -183,-34 -35,-22 -56,-62 -61,-117l-83 -39c0,3 -1,5 -1,8 0,3 0,7 0,13 0,40 9,74 26,101 18,29 43,51 79,68l-101 0 10 91 484 0 -8 -91z"/>
  <path class="fil0" d="M378 14995c-18,-20 -26,-48 -26,-82 0,-33 8,-60 26,-81 18,-19 41,-30 70,-30 29,0 52,11 69,32 16,21 24,50 24,88 0,31 -8,56 -25,75 -18,19 -40,28 -68,28 -29,0 -52,-10 -70,-30l0 0zm243 -197l-13 -79 -298 0c-66,0 -114,15 -144,43 -30,28 -45,73 -45,135 0,20 2,42 5,65 4,23 8,47 16,75l92 21c-12,-28 -21,-53 -26,-76 -6,-22 -9,-44 -9,-64 0,-38 7,-66 20,-84 13,-18 34,-26 62,-26l37 0c-15,19 -25,39 -33,59 -7,21 -10,44 -10,69 0,52 16,94 49,128 33,33 75,50 127,50 52,0 94,-16 124,-48 31,-32 46,-75 46,-131 0,-27 -5,-53 -14,-76 -9,-23 -24,-44 -41,-61l55 0z"/>
  <path class="fil0" d="M1319 14960c108,0 192,31 252,91 60,60 91,142 91,250 0,107 -29,189 -89,249 -60,60 -144,89 -254,89l-103 0 0 -679 103 0zm-103 1436l0 -544 129 0c171,0 307,-50 408,-151 103,-101 153,-233 153,-400 0,-168 -50,-300 -153,-401 -101,-100 -237,-151 -408,-151l-366 0 0 1668 237 -21z"/>
  <path class="fil0" d="M2200 15797c0,-130 35,-235 110,-314 74,-82 170,-122 285,-122 43,0 81,7 117,21 36,12 70,34 101,60l-613 376 0 -21zm867 211c-86,67 -165,117 -242,151 -74,33 -146,50 -213,50 -75,0 -144,-17 -206,-50 -63,-34 -111,-79 -142,-137l880 -544c-58,-103 -134,-185 -230,-240 -94,-55 -199,-81 -319,-81 -86,0 -168,14 -242,45 -74,29 -142,75 -201,135 -60,59 -106,127 -139,206 -32,76 -48,160 -48,247 0,86 16,170 50,246 31,77 79,147 141,206 60,60 130,106 206,137 80,31 161,46 252,46 82,0 165,-17 249,-48 84,-31 168,-79 252,-142l-48 -227z"/>
  <path class="fil0" d="M3388 16374c69,34 153,51 247,51 119,0 218,-36 297,-108 79,-72 117,-163 117,-271 0,-84 -26,-158 -77,-218 -50,-62 -119,-106 -210,-130 -15,-4 -36,-9 -63,-16 -165,-43 -247,-101 -247,-175 0,-43 17,-79 48,-108 34,-26 77,-41 130,-41 43,0 81,10 120,27 38,16 79,47 127,91l131 -149c-52,-55 -110,-98 -175,-127 -62,-29 -129,-43 -201,-43 -117,0 -213,33 -287,100 -75,70 -113,156 -113,264 0,89 24,158 69,211 46,55 123,96 226,129 21,8 50,15 88,27 137,38 206,93 206,163 0,52 -19,93 -55,124 -36,32 -84,48 -146,48 -48,0 -93,-9 -134,-31 -38,-19 -79,-55 -122,-100l-151 134c48,67 105,117 175,148l0 0z"/>
  <path class="fil0" d="M4316 16374c69,34 153,51 247,51 119,0 218,-36 297,-108 79,-72 117,-163 117,-271 0,-84 -26,-158 -77,-218 -50,-62 -119,-106 -210,-130 -15,-4 -36,-9 -63,-16 -165,-43 -247,-101 -247,-175 0,-43 17,-79 48,-108 34,-26 77,-41 130,-41 43,0 81,10 120,27 38,16 79,47 127,91l131 -149c-52,-55 -110,-98 -175,-127 -62,-29 -129,-43 -201,-43 -117,0 -213,33 -287,100 -75,70 -113,156 -113,264 0,89 24,158 69,211 46,55 123,96 226,129 21,8 50,15 88,27 137,38 206,93 206,163 0,52 -19,93 -55,124 -36,32 -84,48 -146,48 -48,0 -93,-9 -134,-31 -38,-19 -79,-55 -122,-100l-151 134c48,67 105,117 175,148l0 0z"/>
  <path class="fil0" d="M5445 15485c79,-79 177,-120 297,-120 120,0 218,41 297,123 79,79 120,179 120,302 0,122 -41,222 -120,304 -79,81 -179,122 -297,122 -120,0 -218,-41 -297,-122 -79,-79 -117,-182 -117,-304 0,-123 38,-223 117,-305l0 0zm-302 551c31,77 79,147 141,206 60,60 130,106 209,137 77,31 160,46 249,46 86,0 170,-17 249,-48 77,-31 147,-75 209,-135 62,-59 110,-129 144,-206 31,-76 48,-158 48,-246 0,-87 -17,-168 -51,-247 -33,-77 -79,-147 -141,-206 -60,-58 -130,-101 -209,-132 -79,-31 -163,-48 -249,-48 -86,0 -170,17 -249,48 -77,31 -146,74 -209,134 -62,60 -110,129 -141,206 -34,74 -50,158 -50,245 0,86 16,170 50,246l0 0z"/>
  <path class="fil0" d="M6803 15811c53,-45 123,-67 209,-67 84,0 153,22 206,67 50,46 77,103 77,177 0,75 -27,132 -82,175 -52,41 -127,63 -223,63 -79,0 -143,-22 -191,-65 -48,-46 -72,-101 -72,-173 0,-74 26,-131 76,-177l0 0zm504 618l199 -33 0 -757c0,-171 -36,-293 -108,-367 -72,-77 -187,-115 -345,-115 -51,0 -106,5 -166,12 -57,9 -119,21 -189,41l-55 234c72,-31 136,-52 194,-67 58,-14 113,-21 163,-21 98,0 168,17 213,50 46,34 67,86 67,158l0 94c-48,-39 -98,-65 -151,-84 -52,-17 -110,-27 -175,-27 -131,0 -239,41 -325,125 -84,84 -128,192 -128,324 0,134 41,239 123,316 81,79 191,117 333,117 69,0 134,-12 194,-36 58,-23 110,-59 156,-105l0 141z"/>
  <path class="fil0" d="M7824 16374c70,34 153,51 247,51 120,0 218,-36 297,-108 79,-72 117,-163 117,-271 0,-84 -26,-158 -76,-218 -51,-62 -120,-106 -211,-130 -14,-4 -36,-9 -62,-16 -166,-43 -247,-101 -247,-175 0,-43 16,-79 48,-108 33,-26 76,-41 129,-41 43,0 82,10 120,27 38,16 79,47 127,91l132 -149c-53,-55 -111,-98 -175,-127 -63,-29 -130,-43 -202,-43 -117,0 -213,33 -287,100 -74,70 -113,156 -113,264 0,89 24,158 70,211 45,55 122,96 225,129 22,8 50,15 89,27 136,38 206,93 206,163 0,52 -19,93 -55,124 -36,32 -84,48 -147,48 -47,0 -93,-9 -134,-31 -38,-19 -79,-55 -122,-100l-151 134c48,67 105,117 175,148l0 0z"/>
  <polygon class="fil0" points="9791,16360 9860,16133 9127,16133 9127,15606 9667,15606 9667,15391 9127,15391 9127,14935 9805,14935 9752,14720 8891,14720 8891,16360 "/>
  <path class="fil0" d="M10072 16338c69,34 153,51 246,51 119,0 217,-36 296,-108 78,-71 117,-162 117,-269 0,-84 -27,-158 -77,-218 -50,-62 -119,-105 -210,-129 -14,-4 -36,-9 -62,-16 -165,-43 -246,-100 -246,-174 0,-43 17,-79 48,-108 33,-26 76,-40 129,-40 43,0 81,9 119,26 38,17 79,48 127,91l131 -148c-53,-55 -110,-98 -174,-127 -62,-29 -129,-43 -201,-43 -117,0 -212,34 -286,100 -74,70 -112,156 -112,263 0,88 24,157 69,210 45,55 122,95 224,129 22,7 50,14 89,26 136,38 205,93 205,162 0,53 -19,93 -55,124 -36,31 -84,48 -146,48 -47,0 -93,-9 -133,-31 -38,-19 -79,-55 -122,-100l-150 134c47,66 105,116 174,147l0 0z"/>
  <path class="fil0" d="M11247 15455c78,-78 174,-119 291,-119 117,0 214,41 291,119 79,82 117,182 117,301 0,122 -38,222 -117,301 -79,81 -174,122 -291,122 -117,0 -215,-41 -291,-120 -79,-81 -117,-181 -117,-303 0,-119 38,-219 117,-301l0 0zm-115 1320l0 -575c57,62 122,110 193,141 72,31 146,48 225,48 81,0 157,-17 233,-48 77,-31 146,-77 206,-134 62,-59 109,-129 143,-205 31,-76 48,-158 48,-246 0,-86 -17,-169 -51,-246 -31,-76 -78,-145 -140,-205 -58,-57 -124,-100 -196,-131 -74,-31 -150,-45 -229,-45 -84,0 -162,16 -232,47 -71,31 -138,81 -200,146l0 -189 -227 22 0 1642 227 -22z"/>
  <path class="fil0" d="M12530 15763c0,-129 36,-234 110,-312 74,-81 169,-122 284,-122 43,0 81,7 117,21 36,12 69,34 100,60l-611 375 0 -22zm864 210c-86,67 -165,117 -241,151 -74,33 -146,50 -212,50 -74,0 -144,-17 -206,-50 -62,-34 -109,-79 -140,-136l875 -542c-57,-103 -133,-184 -229,-239 -93,-55 -198,-81 -317,-81 -86,0 -167,14 -241,45 -74,29 -141,74 -201,134 -59,60 -105,127 -138,205 -31,77 -48,160 -48,246 0,86 17,170 50,246 31,76 79,146 141,205 60,60 129,105 205,136 79,31 160,46 251,46 81,0 165,-17 248,-48 84,-31 167,-79 251,-141l-48 -227z"/>
  <path class="fil0" d="M14484 16038c-45,45 -93,79 -141,100 -50,21 -100,33 -157,33 -108,0 -198,-40 -275,-121 -76,-81 -114,-179 -114,-296 0,-120 38,-217 114,-296 79,-79 175,-119 289,-119 53,0 103,9 148,28 48,19 88,48 127,86l138 -155c-57,-57 -119,-100 -191,-127 -69,-28 -148,-42 -234,-42 -79,0 -155,16 -231,47 -77,31 -143,74 -203,132 -62,59 -110,128 -141,205 -33,74 -50,157 -50,243 0,86 17,167 48,244 33,74 81,145 143,207 60,60 126,103 198,134 72,31 148,45 227,45 83,0 160,-17 234,-48 73,-31 145,-81 217,-147l-146 -153z"/>
  <path class="fil0" d="M15064 14818l-153 -188 -155 188 160 191 148 -191zm-38 1542l0 -1227 -232 22 0 1226 232 -21z"/>
  <path class="fil0" d="M15519 15778c53,-46 122,-67 208,-67 83,0 153,21 205,67 50,45 77,102 77,176 0,74 -27,132 -82,174 -52,41 -126,63 -222,63 -78,0 -143,-22 -190,-65 -48,-45 -72,-100 -72,-172 0,-74 26,-131 76,-176l0 0zm501 615l199 -33 0 -754c0,-170 -36,-291 -108,-365 -71,-77 -186,-115 -343,-115 -51,0 -105,5 -165,12 -57,10 -119,22 -189,41l-55 234c72,-31 136,-53 194,-67 57,-15 112,-22 162,-22 98,0 167,17 212,50 46,34 67,86 67,158l0 93c-47,-38 -98,-65 -150,-84 -53,-16 -110,-26 -174,-26 -132,0 -239,41 -325,124 -83,84 -126,191 -126,322 0,134 40,239 121,315 81,79 191,117 332,117 69,0 134,-12 193,-35 58,-24 110,-60 155,-105l0 140z"/>
  <path class="fil0" d="M16738 14818l-152 -188 -155 188 159 191 148 -191zm-38 1542l0 -1227 -231 22 0 1226 231 -21z"/>
  <path class="fil0" d="M17048 16338c69,34 153,51 246,51 119,0 217,-36 296,-108 79,-71 117,-162 117,-269 0,-84 -26,-158 -76,-218 -51,-62 -120,-105 -210,-129 -15,-4 -36,-9 -63,-16 -164,-43 -245,-100 -245,-174 0,-43 16,-79 47,-108 34,-26 77,-40 129,-40 43,0 81,9 120,26 38,17 78,48 126,91l131 -148c-52,-55 -109,-98 -174,-127 -62,-29 -129,-43 -200,-43 -117,0 -213,34 -287,100 -74,70 -112,156 -112,263 0,88 24,157 69,210 46,55 122,95 225,129 21,7 50,14 88,26 136,38 205,93 205,162 0,53 -19,93 -55,124 -35,31 -83,48 -145,48 -48,0 -93,-9 -134,-31 -38,-19 -79,-55 -122,-100l-150 134c48,66 105,116 174,147l0 0z"/>
  <path class="fil1" d="M4841 3988c0,0 -160,-217 -708,-102 0,0 -1184,7 -361,712 0,0 5139,5003 10376,3208 0,0 -2515,992 -9307,-3818z"/>
  <path class="fil2" d="M2735 6779c0,0 6167,2463 11458,-3354 0,0 677,-1015 701,357 0,0 -82,1227 -769,1759 0,0 -5201,3674 -11390,1238z"/>
  <path class="fil3" d="M6016 8914c0,48 -3,97 -10,145 -53,36 -130,94 -228,175 -29,-32 -43,-70 -43,-115 0,-40 11,-108 32,-205l-27 -24c-141,0 -329,136 -562,407 -233,272 -350,488 -350,649 0,233 361,348 1082,344l5 42c18,145 -54,259 -217,344 -124,64 -258,96 -403,96 -230,0 -417,-78 -560,-235 -143,-157 -215,-366 -215,-627 0,-262 50,-491 149,-688 56,-113 184,-298 382,-555 3,0 104,-59 302,-175 131,-77 234,-115 308,-115 237,0 355,179 355,537z"/>
  <path class="fil3" d="M8032 8878l-132 0c-149,0 -342,107 -579,320 -216,197 -364,382 -446,555 220,-109 441,-215 664,-320 244,-149 408,-334 493,-555zm303 90c0,266 -91,479 -271,640 -120,105 -322,209 -605,314 -318,116 -523,205 -615,265 102,85 279,127 530,127 60,0 147,-23 260,-69 113,-47 200,-70 260,-70 35,0 77,43 125,130 48,86 71,152 71,196 0,113 -93,199 -281,259 -137,44 -272,67 -403,67 -279,0 -509,-77 -689,-230 -202,-168 -303,-408 -303,-718 0,-406 193,-768 578,-1086 354,-293 716,-440 1088,-440 81,0 147,82 196,247 39,129 59,252 59,368z"/>
  <path class="fil3" d="M10414 9608c0,-169 -66,-317 -199,-444 -132,-126 -273,-190 -422,-190 -169,0 -306,87 -408,260 32,121 48,223 48,307 0,69 -24,161 -72,278 -48,117 -72,211 -72,284 223,28 329,42 319,42 134,0 295,-52 483,-157 215,-121 323,-247 323,-380zm276 175c0,587 -401,881 -1204,881 -78,0 -199,-46 -361,-139 -50,97 -332,732 -849,1907 -99,-56 -149,-137 -149,-242 0,-16 4,-32 11,-48l-154 -66 488 -1008c227,-478 340,-839 340,-1080 0,-40 -4,-78 -11,-115 43,21 73,31 91,31 21,0 49,-93 85,-278 14,-76 35,-191 63,-344 124,-579 379,-869 764,-869 248,0 461,163 642,489 162,294 244,587 244,881z"/>
  <path class="fil3" d="M12807 8878l-133 0c-149,0 -341,107 -578,320 -216,197 -364,382 -446,555 220,-109 441,-215 663,-320 245,-149 409,-334 494,-555zm302 90c0,266 -90,479 -271,640 -120,105 -321,209 -604,314 -319,116 -524,205 -616,265 103,85 280,127 531,127 60,0 147,-23 260,-69 113,-47 200,-70 260,-70 35,0 77,43 124,130 48,86 72,152 72,196 0,113 -94,199 -281,259 -138,44 -273,67 -403,67 -280,0 -510,-77 -690,-230 -202,-168 -302,-408 -302,-718 0,-406 192,-768 578,-1086 353,-293 716,-440 1088,-440 81,0 146,82 196,247 39,129 58,252 58,368z"/>
  <path class="fil3" d="M9642 679c357,-149 802,116 994,592 190,476 56,982 -301,1132 -357,149 -802,-116 -993,-592 -192,-476 -57,-983 300,-1132z"/>
  <path class="fil3" d="M6548 0c0,0 855,2054 3161,2845 1715,489 2212,-1629 2212,-1629 -91,1699 -257,2485 -748,3458 -135,292 -387,629 -803,1014 0,0 -232,212 -374,373 0,0 152,-1098 -662,-1683 -906,-651 -2655,-1931 -2786,-4378z"/>
 </g>
</svg>
