<?xml version="1.0" encoding="utf-8"?>
<!-- Generator: Adobe Illustrator 21.0.2, SVG Export Plug-In . SVG Version: 6.00 Build 0)  -->
<svg version="1.1" id="Camada_1" xmlns="http://www.w3.org/2000/svg" xmlns:xlink="http://www.w3.org/1999/xlink" x="0px" y="0px"
	 viewBox="0 0 345 359" style="enable-background:new 0 0 345 359;" xml:space="preserve">
<style type="text/css">
	.st0{fill:#373435;}
	.st1{fill:#8FC74A;}
	.st2{fill:#00A5D6;}
	.st3{fill:#F16847;}
</style>
<g id="Camada_x0020_1">
	<path class="st1" d="M54.2,118.8c0,0-4.6-6.2-20.2-2.9c0,0-33.8,0.2-10.3,20.3c0,0,146.7,142.8,296.2,91.6
		C319.9,227.8,248.1,256.2,54.2,118.8z"/>
	<path class="st2" d="M-5.9,198.5c0,0,176,70.3,327.1-95.7c0,0,19.3-29,20,10.2c0,0-2.3,35-22,50.2
		C319.2,163.2,170.7,268.1-5.9,198.5z"/>
	<path class="st3" d="M87.7,259.5c0,1.4-0.1,2.8-0.3,4.1c-1.5,1-3.7,2.7-6.5,5c-0.8-0.9-1.2-2-1.2-3.3c0-1.1,0.3-3.1,0.9-5.9
		l-0.8-0.7c-4,0-9.4,3.9-16,11.6c-6.7,7.8-10,13.9-10,18.5c0,6.7,10.3,9.9,30.9,9.8l0.1,1.2c0.5,4.1-1.5,7.4-6.2,9.8
		c-3.5,1.8-7.4,2.7-11.5,2.7c-6.6,0-11.9-2.2-16-6.7c-4.1-4.5-6.1-10.4-6.1-17.9c0-7.5,1.4-14,4.3-19.6c1.6-3.2,5.3-8.5,10.9-15.8
		c0.1,0,3-1.7,8.6-5c3.7-2.2,6.7-3.3,8.8-3.3C84.4,244.1,87.7,249.2,87.7,259.5z"/>
	<path class="st3" d="M145.3,258.4h-3.8c-4.3,0-9.8,3.1-16.5,9.1c-6.2,5.6-10.4,10.9-12.7,15.8c6.3-3.1,12.6-6.1,19-9.1
		C138.2,270,142.9,264.7,145.3,258.4z M153.9,261c0,7.6-2.6,13.7-7.7,18.3c-3.4,3-9.2,6-17.3,9c-9.1,3.3-14.9,5.9-17.6,7.6
		c2.9,2.4,8,3.6,15.1,3.6c1.7,0,4.2-0.7,7.4-2c3.2-1.3,5.7-2,7.4-2c1,0,2.2,1.2,3.6,3.7c1.4,2.5,2,4.3,2,5.6c0,3.2-2.7,5.7-8,7.4
		c-3.9,1.3-7.8,1.9-11.5,1.9c-8,0-14.5-2.2-19.7-6.6c-5.8-4.8-8.6-11.6-8.6-20.5c0-11.6,5.5-21.9,16.5-31
		c10.1-8.4,20.4-12.6,31.1-12.6c2.3,0,4.2,2.3,5.6,7.1C153.4,254.2,153.9,257.7,153.9,261z"/>
	<path class="st3" d="M213.3,279.3c0-4.8-1.9-9-5.7-12.7c-3.8-3.6-7.8-5.4-12-5.4c-4.8,0-8.7,2.5-11.6,7.4c0.9,3.5,1.4,6.4,1.4,8.8
		c0,2-0.7,4.6-2.1,7.9c-1.4,3.3-2.1,6-2.1,8.1c6.4,0.8,9.4,1.2,9.1,1.2c3.8,0,8.4-1.5,13.8-4.5C210.2,286.7,213.3,283.1,213.3,279.3
		z M221.2,284.3c0,16.8-11.4,25.1-34.4,25.1c-2.2,0-5.7-1.3-10.3-4c-1.4,2.8-9.5,20.9-24.2,54.4c-2.8-1.6-4.3-3.9-4.3-6.9
		c0-0.5,0.1-0.9,0.3-1.4l-4.4-1.9l13.9-28.8c6.5-13.6,9.7-24,9.7-30.8c0-1.1-0.1-2.2-0.3-3.3c1.2,0.6,2.1,0.9,2.6,0.9
		c0.6,0,1.4-2.7,2.4-7.9c0.4-2.2,1-5.5,1.8-9.8c3.5-16.5,10.8-24.8,21.8-24.8c7.1,0,13.2,4.7,18.3,14
		C218.8,267.5,221.2,275.9,221.2,284.3z"/>
	<path class="st3" d="M281.6,258.4h-3.8c-4.3,0-9.7,3.1-16.5,9.1c-6.2,5.6-10.4,10.9-12.7,15.8c6.3-3.1,12.6-6.1,18.9-9.1
		C274.5,270,279.2,264.7,281.6,258.4z M290.2,261c0,7.6-2.6,13.7-7.7,18.3c-3.4,3-9.2,6-17.2,9c-9.1,3.3-15,5.9-17.6,7.6
		c2.9,2.4,8,3.6,15.2,3.6c1.7,0,4.2-0.7,7.4-2c3.2-1.3,5.7-2,7.4-2c1,0,2.2,1.2,3.5,3.7c1.4,2.5,2.1,4.3,2.1,5.6
		c0,3.2-2.7,5.7-8,7.4c-3.9,1.3-7.8,1.9-11.5,1.9c-8,0-14.6-2.2-19.7-6.6c-5.8-4.8-8.6-11.6-8.6-20.5c0-11.6,5.5-21.9,16.5-31
		c10.1-8.4,20.4-12.6,31.1-12.6c2.3,0,4.2,2.3,5.6,7.1C289.7,254.2,290.2,257.7,290.2,261z"/>
	<path class="st3" d="M191.2,24.4c10.2-4.3,22.9,3.3,28.4,16.9c5.4,13.6,1.6,28-8.6,32.3c-10.2,4.3-22.9-3.3-28.3-16.9
		C177.2,43.1,181.1,28.6,191.2,24.4z"/>
	<path class="st3" d="M102.9,5c0,0,24.4,58.6,90.2,81.2c49,14,63.1-46.5,63.1-46.5c-2.6,48.5-7.3,70.9-21.4,98.7
		c-3.9,8.3-11,18-22.9,28.9c0,0-6.6,6.1-10.7,10.6c0,0,4.3-31.3-18.9-48C156.6,111.4,106.7,74.9,102.9,5z"/>
</g>
</svg>
