<?xml version="1.0" encoding="utf-8"?>
<!-- Generator: Adobe Illustrator 21.0.2, SVG Export Plug-In . SVG Version: 6.00 Build 0)  -->
<svg version="1.1" id="Camada_1" xmlns="http://www.w3.org/2000/svg" xmlns:xlink="http://www.w3.org/1999/xlink" x="0px" y="0px"
	 viewBox="0 0 530 130" style="enable-background:new 0 0 530 130;" xml:space="preserve">
<style type="text/css">
	.st0{fill:#373435;}
	.st1{fill:#8FC74A;}
	.st2{fill:#00A5D6;}
	.st3{fill:#F16847;}
</style>
<g id="Camada_x0020_1">
	<path class="st0" d="M50.3,52c-0.7,0.5-1.4,0.8-1.9,1.1c-0.6,0.3-1,0.5-1.5,0.7c-1,0.5-2.1,0.7-3.3,0.9c-1.2,0.2-2.4,0.3-3.8,0.3
		c-2.4,0-4.7-0.5-6.9-1.5c-2.2-1-4.2-2.3-5.9-4c-1.8-1.9-3.1-3.9-4-6.4c-1-2.4-1.4-5-1.4-7.8c0-5.7,1.8-10.4,5.3-14.2
		c3.5-3.7,8-5.6,13.3-5.6c1.7,0,3.4,0.2,5,0.6c1.5,0.5,3,1,4.4,1.9L48.5,10c-1.5-0.5-2.9-0.7-4.4-1c-1.4-0.2-2.8-0.4-4.2-0.4
		c-3.5,0-6.9,0.7-10,1.9c-3.1,1.3-5.9,3.1-8.3,5.5c-2.5,2.5-4.5,5.4-5.7,8.6c-1.3,3.3-1.9,6.7-1.9,10.6c0,4.7,1,8.9,2.9,12.7
		c1.9,3.8,4.7,6.9,8.3,9.4c2.1,1.4,4.4,2.5,7,3.3c2.5,0.7,5.3,1.1,8.1,1.1c1.6,0,3.2-0.1,4.7-0.4c1.5-0.3,2.9-0.7,4.4-1.4L50.3,52z"
		/>
	<path class="st0" d="M60.8,42.1c0-4,1.1-7.3,3.4-9.7c2.3-2.5,5.3-3.8,8.8-3.8c1.3,0,2.5,0.2,3.6,0.7c1.1,0.4,2.1,1,3.1,1.9
		L60.8,42.8V42.1z M87.6,48.6c-2.7,2.1-5.1,3.6-7.5,4.7c-2.3,1-4.5,1.5-6.6,1.5c-2.3,0-4.5-0.5-6.4-1.5s-3.4-2.4-4.4-4.2l27.1-16.8
		c-1.8-3.2-4.1-5.7-7.1-7.4c-2.9-1.7-6.1-2.5-9.8-2.5c-2.7,0-5.2,0.4-7.5,1.4c-2.3,0.9-4.4,2.3-6.2,4.1c-1.8,1.9-3.2,3.9-4.3,6.4
		c-0.9,2.3-1.5,4.9-1.5,7.6c0,2.7,0.5,5.3,1.5,7.6c1,2.4,2.4,4.5,4.4,6.4c1.8,1.8,4,3.3,6.3,4.2c2.5,1,5,1.4,7.8,1.4
		c2.5,0,5.1-0.5,7.7-1.5c2.6-1,5.2-2.5,7.8-4.4L87.6,48.6z"/>
	<path class="st0" d="M101.6,60.6V40.2c0-4,0.7-7,2.2-8.9c1.4-1.9,3.6-2.9,6.6-2.9c2.5,0,4.3,0.7,5.3,2.1c1.1,1.5,1.6,3.9,1.6,7.4
		v23.3l7-0.7V38.5c0-5.5-1-9.5-3-12c-2-2.6-5.2-3.9-9.4-3.9c-2.1,0-4,0.5-5.8,1.5c-1.8,1-3.3,2.4-4.5,4.1v-5.5l-7,0.7v38L101.6,60.6
		z"/>
	<path class="st0" d="M132.9,13.8v9.5h-3.7l-1.8,6.4h5.5v15.1c0,6.2,0.9,10.6,2.9,13c1.9,2.5,5.3,3.6,9.9,3.6c0.5,0,1.2,0,1.9-0.1
		c0.7-0.1,1.5-0.2,2.3-0.3l1.8-6.7c-0.7,0.2-1.4,0.4-2.1,0.5c-0.7,0.1-1.3,0.1-2,0.1c-3,0-4.9-0.6-6-1.7c-1.1-1.2-1.6-4-1.6-8.6v-15
		h10v-6.4h-10V12.1L132.9,13.8z"/>
	<path class="st0" d="M162.2,60.6V47.9c0-6.8,0.9-11.5,2.7-14.3c1.8-2.8,4.9-4.5,9.2-4.8l3.1-6.5c-0.2,0-0.4-0.1-0.7-0.1
		c-0.2,0-0.5,0-0.9,0c-3.2,0-5.9,0.7-8,2c-2.2,1.4-4,3.4-5.3,6.2v-7.9l-7.1,0.8v38L162.2,60.6z"/>
	<path class="st0" d="M186.9,32.5c2.5-2.4,5.5-3.7,9.2-3.7c3.7,0,6.7,1.3,9.2,3.8c2.5,2.5,3.7,5.5,3.7,9.3s-1.3,6.9-3.7,9.4
		c-2.4,2.5-5.5,3.8-9.2,3.8c-3.7,0-6.7-1.3-9.2-3.8c-2.4-2.4-3.6-5.6-3.6-9.4S184.5,35.1,186.9,32.5L186.9,32.5z M177.6,49.5
		c1,2.4,2.4,4.5,4.4,6.4c1.8,1.8,4,3.3,6.4,4.2c2.4,1,4.9,1.4,7.7,1.4c2.7,0,5.3-0.5,7.7-1.5c2.4-1,4.5-2.3,6.5-4.1
		c1.9-1.9,3.4-4,4.4-6.4c1-2.4,1.5-4.9,1.5-7.6c0-2.7-0.5-5.2-1.5-7.6c-1.1-2.4-2.5-4.5-4.4-6.4c-1.9-1.8-4-3.1-6.5-4.1
		c-2.4-1-5-1.5-7.7-1.5s-5.3,0.5-7.7,1.5c-2.4,0.9-4.5,2.3-6.4,4.1c-1.9,1.8-3.4,4-4.4,6.3c-1,2.3-1.5,4.9-1.5,7.5
		C176.1,44.6,176.6,47.2,177.6,49.5L177.6,49.5z"/>
	<polygon class="st0" points="263.3,60.6 265.4,53.6 242.7,53.6 242.7,37.3 259.4,37.3 259.4,30.6 242.7,30.6 242.7,16.5 
		263.7,16.5 262.1,9.9 235.4,9.9 235.4,60.6 	"/>
	<path class="st0" d="M272,60c2.1,1,4.7,1.5,7.6,1.5c3.7,0,6.7-1.1,9.2-3.3c2.4-2.2,3.6-5,3.6-8.4c0-2.6-0.8-4.9-2.4-6.7
		c-1.6-1.9-3.7-3.3-6.5-4c-0.5-0.1-1.1-0.3-1.9-0.5c-5.1-1.3-7.6-3.1-7.6-5.4c0-1.3,0.5-2.5,1.5-3.3c1-0.8,2.4-1.3,4-1.3
		c1.3,0,2.5,0.3,3.7,0.8s2.4,1.5,3.9,2.8l4.1-4.6c-1.6-1.7-3.4-3.1-5.4-3.9c-1.9-0.9-4-1.3-6.2-1.3c-3.6,0-6.6,1-8.9,3.1
		c-2.3,2.1-3.5,4.8-3.5,8.1c0,2.7,0.7,4.9,2.1,6.5c1.4,1.7,3.8,3,6.9,4c0.7,0.2,1.6,0.5,2.7,0.8c4.2,1.2,6.4,2.9,6.4,5.1
		c0,1.6-0.6,2.9-1.7,3.8c-1.1,1-2.6,1.5-4.5,1.5c-1.5,0-2.9-0.3-4.1-1c-1.2-0.6-2.4-1.7-3.8-3.1l-4.7,4.1
		C268.1,57.4,269.9,59,272,60L272,60z"/>
	<path class="st0" d="M308.4,32.6c2.5-2.4,5.4-3.7,9-3.7s6.7,1.3,9,3.7c2.5,2.5,3.6,5.6,3.6,9.3c0,3.8-1.2,6.9-3.6,9.3
		c-2.4,2.5-5.4,3.8-9,3.8s-6.7-1.3-9-3.7c-2.4-2.5-3.6-5.6-3.6-9.4C304.8,38.2,305.9,35.1,308.4,32.6L308.4,32.6z M304.8,73.5V55.7
		c1.8,1.9,3.8,3.4,6,4.4c2.2,0.9,4.5,1.5,6.9,1.5c2.5,0,4.9-0.5,7.3-1.5c2.4-1,4.5-2.4,6.4-4.1c1.9-1.9,3.4-4,4.4-6.4
		c1-2.4,1.5-4.9,1.5-7.6c0-2.7-0.5-5.3-1.6-7.6c-0.9-2.4-2.4-4.5-4.3-6.4c-1.8-1.8-3.9-3.1-6.1-4.1c-2.3-1-4.7-1.4-7.1-1.4
		c-2.6,0-5,0.5-7.2,1.5c-2.2,1-4.3,2.5-6.2,4.5v-5.8l-7,0.7v50.8L304.8,73.5z"/>
	<path class="st0" d="M351.8,32.5c2.4-2.4,5.5-3.7,9.2-3.7s6.7,1.3,9.2,3.8c2.5,2.5,3.7,5.5,3.7,9.3s-1.3,6.9-3.7,9.4
		c-2.4,2.5-5.5,3.8-9.2,3.8c-3.7,0-6.7-1.3-9.2-3.8c-2.4-2.4-3.6-5.6-3.6-9.4S349.3,35.1,351.8,32.5L351.8,32.5z M342.5,49.5
		c0.9,2.4,2.4,4.5,4.4,6.4c1.8,1.8,4,3.3,6.4,4.2c2.4,1,4.9,1.4,7.7,1.4c2.7,0,5.3-0.5,7.7-1.5c2.4-1,4.5-2.3,6.5-4.1
		c1.9-1.9,3.4-4,4.4-6.4c1-2.4,1.5-4.9,1.5-7.6c0-2.7-0.5-5.2-1.6-7.6c-1-2.4-2.4-4.5-4.3-6.4c-1.9-1.8-4-3.1-6.5-4.1
		c-2.4-1-5-1.5-7.7-1.5s-5.3,0.5-7.7,1.5c-2.4,0.9-4.5,2.3-6.4,4.1c-1.9,1.8-3.4,4-4.4,6.3c-1,2.3-1.6,4.9-1.6,7.5
		C340.9,44.6,341.4,47.2,342.5,49.5L342.5,49.5z"/>
	<path class="st0" d="M393.6,60.6V47.9c0-6.8,0.9-11.5,2.7-14.3c1.8-2.8,4.9-4.5,9.2-4.8l3.1-6.5c-0.2,0-0.4-0.1-0.7-0.1
		c-0.2,0-0.5,0-1,0c-3.2,0-5.8,0.7-8,2c-2.2,1.4-4,3.4-5.3,6.2v-7.9l-7.1,0.8v38L393.6,60.6z"/>
	<path class="st0" d="M412.2,13.8v9.5h-3.7l-1.9,6.4h5.5v15.1c0,6.2,1,10.6,3,13c1.9,2.5,5.3,3.6,9.9,3.6c0.5,0,1.2,0,1.9-0.1
		c0.7-0.1,1.5-0.2,2.3-0.3l1.8-6.7c-0.7,0.2-1.4,0.4-2.1,0.5c-0.7,0.1-1.3,0.1-2,0.1c-3,0-5-0.6-6-1.7c-1.1-1.2-1.6-4-1.6-8.6v-15
		h10v-6.4h-10V12.1L412.2,13.8z"/>
	<path class="st0" d="M443.3,12.9L438.5,7l-4.8,5.9l5,5.9L443.3,12.9z M442.1,60.6v-38l-7.2,0.7v38L442.1,60.6z"/>
	<path class="st0" d="M480.6,23.7l-6.6-1.3l-9.6,21.9c-0.2,0.6-0.5,1.3-0.7,2.1c-0.2,0.7-0.5,1.5-0.6,2.4c-0.1-0.7-0.3-1.5-0.5-2.4
		c-0.2-0.8-0.6-1.6-1-2.5l-10.1-21.5l-6.5,1.3L463,62.1L480.6,23.7z"/>
	<path class="st0" d="M491.8,32.5c2.4-2.4,5.5-3.7,9.2-3.7s6.7,1.3,9.2,3.8c2.4,2.5,3.7,5.5,3.7,9.3s-1.3,6.9-3.7,9.4
		c-2.4,2.5-5.5,3.8-9.2,3.8c-3.7,0-6.7-1.3-9.2-3.8c-2.5-2.4-3.6-5.6-3.6-9.4S489.3,35.1,491.8,32.5L491.8,32.5z M482.4,49.5
		c0.9,2.4,2.4,4.5,4.3,6.4c1.9,1.8,4,3.3,6.5,4.2c2.4,1,4.9,1.4,7.7,1.4c2.7,0,5.3-0.5,7.7-1.5c2.4-1,4.5-2.3,6.4-4.1
		c1.9-1.9,3.4-4,4.5-6.4c0.9-2.4,1.5-4.9,1.5-7.6c0-2.7-0.5-5.2-1.6-7.6c-1-2.4-2.4-4.5-4.4-6.4c-1.8-1.8-4-3.1-6.4-4.1
		c-2.4-1-5-1.5-7.7-1.5s-5.3,0.5-7.7,1.5c-2.4,0.9-4.5,2.3-6.5,4.1c-1.9,1.8-3.4,4-4.3,6.3c-1.1,2.3-1.6,4.9-1.6,7.5
		C480.9,44.6,481.4,47.2,482.4,49.5L482.4,49.5z"/>
	<path class="st0" d="M21.2,111.7c-0.9-0.9-1.3-2-1.3-3.3c0-1.3,0.5-2.4,1.3-3.3c0.9-0.9,2.1-1.3,3.4-1.3c1.4,0,2.5,0.4,3.4,1.3
		c0.9,0.9,1.4,2,1.4,3.3c0,1.3-0.5,2.4-1.3,3.3c-0.9,0.9-2,1.3-3.4,1.3C23.2,113,22.1,112.6,21.2,111.7L21.2,111.7z M36,113h-6.5
		c0.7-0.7,1.2-1.4,1.6-2.2c0.4-0.8,0.5-1.7,0.5-2.5c0-0.9-0.2-1.8-0.5-2.6c-0.3-0.9-0.9-1.7-1.5-2.3c-0.7-0.7-1.5-1.2-2.3-1.6
		c-0.9-0.3-1.8-0.5-2.8-0.5c-1,0-1.9,0.2-2.8,0.6c-0.9,0.4-1.7,0.9-2.3,1.6c-0.7,0.6-1.1,1.4-1.5,2.2c-0.3,0.8-0.5,1.7-0.5,2.6
		c0,0.9,0.2,1.9,0.5,2.6c0.3,0.8,0.9,1.5,1.6,2.3h-2.1l0.2,2.5h18.5L36,113z"/>
	<path class="st0" d="M24.8,96.5c-0.5-0.6-0.7-1.4-0.7-2.3c0-0.9,0.2-1.7,0.7-2.3s1.2-0.9,2-0.9c0.8,0,1.5,0.3,2,0.9
		c0.5,0.6,0.7,1.4,0.7,2.5c0,0.9-0.2,1.6-0.7,2.2c-0.5,0.5-1.1,0.8-1.9,0.8C26,97.4,25.3,97.1,24.8,96.5L24.8,96.5z M31.7,90.9
		l-0.4-2.2h-8.5c-1.9,0-3.3,0.4-4.1,1.2s-1.3,2.1-1.3,3.9c0,0.5,0.1,1.2,0.1,1.9c0.1,0.6,0.2,1.3,0.5,2.1l2.6,0.6
		c-0.3-0.8-0.6-1.5-0.7-2.2c-0.2-0.6-0.3-1.3-0.3-1.8c0-1.1,0.2-1.9,0.6-2.4c0.4-0.5,1-0.8,1.8-0.8h1.1c-0.4,0.5-0.7,1.1-0.9,1.7
		c-0.2,0.6-0.3,1.2-0.3,1.9c0,1.5,0.5,2.7,1.4,3.7c0.9,0.9,2.1,1.4,3.6,1.4s2.7-0.5,3.5-1.4c0.9-0.9,1.3-2.1,1.3-3.7
		c0-0.8-0.1-1.5-0.4-2.2c-0.3-0.6-0.7-1.2-1.2-1.7H31.7z"/>
	<path class="st0" d="M31.4,83.4h-4.6c-2.5,0-4.2-0.3-5.2-1c-1-0.6-1.6-1.8-1.7-3.3L17.4,78c0,0.1,0,0.1,0,0.2s0,0.2,0,0.4
		c0,1.1,0.3,2.1,0.7,2.9c0.5,0.8,1.2,1.5,2.3,1.9h-2.9l0.3,2.6h13.8L31.4,83.4z"/>
	<path class="st0" d="M24.8,75.1c-0.5-0.6-0.7-1.4-0.7-2.3c0-0.9,0.2-1.7,0.7-2.3c0.5-0.5,1.2-0.9,2-0.9c0.8,0,1.5,0.3,2,0.9
		c0.5,0.6,0.7,1.4,0.7,2.5c0,0.9-0.2,1.6-0.7,2.1c-0.5,0.5-1.1,0.8-1.9,0.8C26,75.9,25.3,75.6,24.8,75.1L24.8,75.1z M31.7,69.4
		l-0.4-2.3h-8.5c-1.9,0-3.3,0.4-4.1,1.2s-1.3,2.1-1.3,3.9c0,0.6,0.1,1.2,0.1,1.9c0.1,0.7,0.2,1.3,0.5,2.1l2.6,0.6
		c-0.3-0.8-0.6-1.5-0.7-2.2c-0.2-0.6-0.3-1.3-0.3-1.8c0-1.1,0.2-1.9,0.6-2.4c0.4-0.5,1-0.7,1.8-0.7h1.1c-0.4,0.5-0.7,1.1-0.9,1.7
		c-0.2,0.6-0.3,1.3-0.3,2c0,1.5,0.5,2.7,1.4,3.7c0.9,0.9,2.1,1.4,3.6,1.4s2.7-0.5,3.5-1.4c0.9-0.9,1.3-2.1,1.3-3.7
		c0-0.8-0.1-1.5-0.4-2.2s-0.7-1.3-1.2-1.7H31.7z"/>
	<path class="st0" d="M51.7,74.1c3.1,0,5.5,0.9,7.2,2.6c1.7,1.7,2.6,4.1,2.6,7.1c0,3.1-0.8,5.4-2.5,7.1c-1.7,1.7-4.1,2.5-7.3,2.5
		h-2.9V74.1H51.7z M48.7,115V99.5h3.7c4.9,0,8.8-1.4,11.6-4.3c2.9-2.9,4.4-6.7,4.4-11.4c0-4.8-1.4-8.6-4.4-11.4
		c-2.9-2.9-6.8-4.3-11.6-4.3H41.9v47.6L48.7,115z"/>
	<path class="st0" d="M76.8,97.9c0-3.7,1-6.7,3.1-9c2.1-2.3,4.9-3.5,8.1-3.5c1.2,0,2.3,0.2,3.3,0.6c1,0.3,2,1,2.9,1.7L76.8,98.5
		V97.9z M101.6,104c-2.5,1.9-4.7,3.3-6.9,4.3c-2.1,0.9-4.2,1.4-6.1,1.4c-2.1,0-4.1-0.5-5.9-1.4c-1.8-1-3.2-2.3-4.1-3.9l25.1-15.5
		c-1.7-2.9-3.8-5.3-6.6-6.9c-2.7-1.6-5.7-2.3-9.1-2.3c-2.5,0-4.8,0.4-6.9,1.3c-2.1,0.8-4.1,2.1-5.7,3.9c-1.7,1.7-3,3.6-4,5.9
		c-0.9,2.2-1.4,4.6-1.4,7.1c0,2.5,0.5,4.9,1.4,7c0.9,2.2,2.3,4.2,4,5.9c1.7,1.7,3.7,3,5.9,3.9c2.3,0.9,4.6,1.3,7.2,1.3
		c2.3,0,4.7-0.5,7.1-1.4c2.4-0.9,4.8-2.3,7.2-4.1L101.6,104z"/>
	<path class="st0" d="M110.7,114.4c2,1,4.4,1.5,7.1,1.5c3.4,0,6.2-1,8.5-3.1s3.3-4.7,3.3-7.7c0-2.4-0.7-4.5-2.2-6.2
		c-1.4-1.8-3.4-3-6-3.7c-0.4-0.1-1-0.3-1.8-0.5c-4.7-1.2-7.1-2.9-7.1-5c0-1.2,0.5-2.3,1.4-3.1c1-0.7,2.2-1.2,3.7-1.2
		c1.2,0,2.3,0.3,3.4,0.8c1.1,0.5,2.3,1.3,3.6,2.6l3.7-4.3c-1.5-1.6-3.1-2.8-5-3.6c-1.8-0.8-3.7-1.2-5.7-1.2c-3.3,0-6.1,0.9-8.2,2.9
		c-2.1,2-3.2,4.5-3.2,7.5c0,2.5,0.7,4.5,2,6c1.3,1.6,3.5,2.7,6.5,3.7c0.6,0.2,1.4,0.4,2.5,0.8c3.9,1.1,5.9,2.7,5.9,4.7
		c0,1.5-0.5,2.7-1.6,3.5c-1,0.9-2.4,1.4-4.2,1.4c-1.4,0-2.7-0.3-3.8-0.9c-1.1-0.5-2.3-1.6-3.5-2.9l-4.3,3.8
		C107.1,112.1,108.7,113.5,110.7,114.4L110.7,114.4z"/>
	<path class="st0" d="M137.2,114.4c2,1,4.4,1.5,7.1,1.5c3.4,0,6.2-1,8.5-3.1c2.3-2.1,3.3-4.7,3.3-7.7c0-2.4-0.7-4.5-2.2-6.2
		c-1.4-1.8-3.4-3-6-3.7c-0.4-0.1-1-0.3-1.8-0.5c-4.7-1.2-7.1-2.9-7.1-5c0-1.2,0.5-2.3,1.4-3.1c1-0.7,2.2-1.2,3.7-1.2
		c1.2,0,2.3,0.3,3.4,0.8c1.1,0.5,2.3,1.3,3.6,2.6l3.7-4.3c-1.5-1.6-3.1-2.8-5-3.6c-1.8-0.8-3.7-1.2-5.7-1.2c-3.3,0-6.1,0.9-8.2,2.9
		c-2.1,2-3.2,4.5-3.2,7.5c0,2.5,0.7,4.5,2,6c1.3,1.6,3.5,2.7,6.5,3.7c0.6,0.2,1.4,0.4,2.5,0.8c3.9,1.1,5.9,2.7,5.9,4.7
		c0,1.5-0.5,2.7-1.6,3.5c-1,0.9-2.4,1.4-4.2,1.4c-1.4,0-2.7-0.3-3.8-0.9c-1.1-0.5-2.3-1.6-3.5-2.9l-4.3,3.8
		C133.6,112.1,135.2,113.5,137.2,114.4L137.2,114.4z"/>
	<path class="st0" d="M169.4,89c2.3-2.3,5.1-3.4,8.5-3.4c3.4,0,6.2,1.2,8.5,3.5c2.3,2.3,3.4,5.1,3.4,8.6c0,3.5-1.2,6.3-3.4,8.7
		c-2.3,2.3-5.1,3.5-8.5,3.5c-3.4,0-6.2-1.2-8.5-3.5c-2.3-2.3-3.3-5.2-3.3-8.7C166.1,94.2,167.2,91.4,169.4,89L169.4,89z
		 M160.8,104.8c0.9,2.2,2.3,4.2,4,5.9c1.7,1.7,3.7,3,6,3.9c2.2,0.9,4.6,1.3,7.1,1.3c2.5,0,4.9-0.5,7.1-1.4c2.2-0.9,4.2-2.1,6-3.9
		c1.8-1.7,3.1-3.7,4.1-5.9c0.9-2.2,1.4-4.5,1.4-7c0-2.5-0.5-4.8-1.5-7.1c-0.9-2.2-2.3-4.2-4-5.9c-1.7-1.7-3.7-2.9-6-3.8
		s-4.7-1.4-7.1-1.4c-2.5,0-4.9,0.5-7.1,1.4c-2.2,0.9-4.2,2.1-6,3.8c-1.8,1.7-3.1,3.7-4,5.9c-1,2.1-1.4,4.5-1.4,7
		C159.4,100.2,159.8,102.6,160.8,104.8L160.8,104.8z"/>
	<path class="st0" d="M208.2,98.3c1.5-1.3,3.5-1.9,6-1.9c2.4,0,4.4,0.6,5.9,1.9c1.4,1.3,2.2,2.9,2.2,5.1c0,2.1-0.8,3.8-2.3,5
		c-1.5,1.2-3.6,1.8-6.4,1.8c-2.3,0-4.1-0.6-5.5-1.9c-1.4-1.3-2.1-2.9-2.1-4.9C206,101.3,206.8,99.7,208.2,98.3L208.2,98.3z
		 M222.6,116l5.7-0.9V93.4c0-4.9-1-8.4-3.1-10.5c-2.1-2.2-5.3-3.3-9.8-3.3c-1.5,0-3,0.1-4.7,0.3c-1.6,0.3-3.4,0.6-5.4,1.2l-1.6,6.7
		c2.1-0.9,3.9-1.5,5.5-1.9c1.7-0.4,3.2-0.6,4.7-0.6c2.8,0,4.8,0.5,6.1,1.4c1.3,1,1.9,2.5,1.9,4.5V94c-1.4-1.1-2.8-1.9-4.3-2.4
		c-1.5-0.5-3.1-0.8-5-0.8c-3.7,0-6.8,1.2-9.3,3.6c-2.4,2.4-3.7,5.5-3.7,9.2c0,3.8,1.2,6.8,3.5,9c2.3,2.3,5.5,3.3,9.5,3.3
		c2,0,3.8-0.3,5.5-1c1.7-0.7,3.1-1.7,4.5-3V116z"/>
	<path class="st0" d="M237.3,114.4c2,1,4.4,1.5,7.1,1.5c3.4,0,6.2-1,8.5-3.1c2.3-2.1,3.3-4.7,3.3-7.7c0-2.4-0.7-4.5-2.2-6.2
		c-1.5-1.8-3.4-3-6-3.7c-0.4-0.1-1-0.3-1.8-0.5c-4.7-1.2-7.1-2.9-7.1-5c0-1.2,0.5-2.3,1.4-3.1c0.9-0.7,2.2-1.2,3.7-1.2
		c1.2,0,2.3,0.3,3.4,0.8c1.1,0.5,2.3,1.3,3.6,2.6l3.8-4.3c-1.5-1.6-3.2-2.8-5-3.6c-1.8-0.8-3.7-1.2-5.8-1.2c-3.3,0-6.1,0.9-8.2,2.9
		c-2.1,2-3.2,4.5-3.2,7.5c0,2.5,0.7,4.5,2,6c1.3,1.6,3.5,2.7,6.4,3.7c0.6,0.2,1.4,0.4,2.5,0.8c3.9,1.1,5.9,2.7,5.9,4.7
		c0,1.5-0.5,2.7-1.6,3.5c-1,0.9-2.4,1.4-4.2,1.4c-1.3,0-2.7-0.3-3.8-0.9c-1.1-0.5-2.3-1.6-3.5-2.9l-4.3,3.8
		C233.7,112.1,235.3,113.5,237.3,114.4L237.3,114.4z"/>
	<polygon class="st0" points="293.5,114 295.5,107.5 274.5,107.5 274.5,92.5 290,92.5 290,86.4 274.5,86.4 274.5,73.3 293.9,73.3 
		292.4,67.2 267.8,67.2 267.8,114 	"/>
	<path class="st0" d="M301.5,113.4c2,1,4.4,1.5,7,1.5c3.4,0,6.2-1,8.4-3.1c2.2-2,3.3-4.6,3.3-7.7c0-2.4-0.8-4.5-2.2-6.2
		c-1.4-1.8-3.4-3-6-3.7c-0.4-0.1-1-0.3-1.8-0.5c-4.7-1.2-7-2.9-7-5c0-1.2,0.5-2.3,1.4-3.1c0.9-0.7,2.2-1.1,3.7-1.1
		c1.2,0,2.3,0.3,3.4,0.7c1.1,0.5,2.3,1.4,3.6,2.6l3.7-4.2c-1.5-1.6-3.1-2.8-5-3.6c-1.8-0.8-3.7-1.2-5.7-1.2c-3.3,0-6.1,1-8.2,2.9
		c-2.1,2-3.2,4.5-3.2,7.5c0,2.5,0.7,4.5,2,6c1.3,1.6,3.5,2.7,6.4,3.7c0.6,0.2,1.4,0.4,2.5,0.7c3.9,1.1,5.9,2.7,5.9,4.6
		c0,1.5-0.5,2.7-1.6,3.5c-1,0.9-2.4,1.4-4.2,1.4c-1.3,0-2.7-0.3-3.8-0.9c-1.1-0.5-2.3-1.6-3.5-2.9l-4.3,3.8
		C297.9,111.1,299.6,112.5,301.5,113.4L301.5,113.4z"/>
	<path class="st0" d="M335.1,88.2c2.2-2.2,5-3.4,8.3-3.4c3.3,0,6.1,1.2,8.3,3.4c2.3,2.3,3.3,5.2,3.3,8.6c0,3.5-1.1,6.3-3.3,8.6
		c-2.3,2.3-5,3.5-8.3,3.5c-3.3,0-6.1-1.2-8.3-3.4c-2.3-2.3-3.3-5.2-3.3-8.6C331.7,93.4,332.8,90.5,335.1,88.2L335.1,88.2z
		 M331.8,125.9v-16.4c1.6,1.8,3.5,3.1,5.5,4c2.1,0.9,4.2,1.4,6.4,1.4c2.3,0,4.5-0.5,6.7-1.4c2.2-0.9,4.2-2.2,5.9-3.8
		c1.8-1.7,3.1-3.7,4.1-5.9c0.9-2.2,1.4-4.5,1.4-7c0-2.5-0.5-4.8-1.5-7c-0.9-2.2-2.2-4.1-4-5.9c-1.7-1.6-3.5-2.9-5.6-3.7
		c-2.1-0.9-4.3-1.3-6.5-1.3c-2.4,0-4.6,0.5-6.6,1.3c-2,0.9-3.9,2.3-5.7,4.2V79l-6.5,0.6v46.9L331.8,125.9z"/>
	<path class="st0" d="M371.7,97c0-3.7,1-6.7,3.1-8.9c2.1-2.3,4.8-3.5,8.1-3.5c1.2,0,2.3,0.2,3.3,0.6c1,0.3,2,1,2.9,1.7l-17.4,10.7
		V97z M396.4,103c-2.5,1.9-4.7,3.3-6.9,4.3c-2.1,0.9-4.2,1.4-6.1,1.4c-2.1,0-4.1-0.5-5.9-1.4c-1.8-1-3.1-2.3-4-3.9l25-15.5
		c-1.6-2.9-3.8-5.3-6.5-6.8c-2.7-1.6-5.7-2.3-9-2.3c-2.5,0-4.8,0.4-6.9,1.3c-2.1,0.8-4,2.1-5.7,3.8c-1.7,1.7-3,3.6-3.9,5.9
		c-0.9,2.2-1.4,4.6-1.4,7s0.5,4.9,1.4,7c0.9,2.2,2.3,4.2,4,5.9c1.7,1.7,3.7,3,5.9,3.9c2.3,0.9,4.6,1.3,7.2,1.3
		c2.3,0,4.7-0.5,7.1-1.4c2.4-0.9,4.8-2.3,7.2-4L396.4,103z"/>
	<path class="st0" d="M427.5,104.8c-1.3,1.3-2.7,2.3-4,2.9c-1.4,0.6-2.9,0.9-4.5,0.9c-3.1,0-5.7-1.1-7.9-3.5
		c-2.2-2.3-3.3-5.1-3.3-8.4c0-3.4,1.1-6.2,3.3-8.4c2.3-2.3,5-3.4,8.2-3.4c1.5,0,2.9,0.3,4.2,0.8c1.4,0.5,2.5,1.4,3.6,2.5l3.9-4.4
		c-1.6-1.6-3.4-2.9-5.5-3.6c-2-0.8-4.2-1.2-6.7-1.2c-2.3,0-4.4,0.5-6.6,1.3c-2.2,0.9-4.1,2.1-5.8,3.8c-1.8,1.7-3.1,3.7-4,5.9
		c-0.9,2.1-1.4,4.5-1.4,6.9s0.5,4.8,1.4,7c0.9,2.1,2.3,4.1,4.1,5.9c1.7,1.7,3.6,2.9,5.7,3.8c2.1,0.9,4.2,1.3,6.5,1.3
		c2.4,0,4.6-0.5,6.7-1.4c2.1-0.9,4.1-2.3,6.2-4.2L427.5,104.8z"/>
	<path class="st0" d="M444,70l-4.4-5.4l-4.4,5.4l4.6,5.5L444,70z M442.9,114V79l-6.6,0.6v35L442.9,114z"/>
	<path class="st0" d="M457,97.4c1.5-1.3,3.5-1.9,5.9-1.9c2.4,0,4.4,0.6,5.9,1.9c1.4,1.3,2.2,2.9,2.2,5c0,2.1-0.8,3.8-2.3,5
		c-1.5,1.2-3.6,1.8-6.3,1.8c-2.2,0-4.1-0.6-5.4-1.9c-1.4-1.3-2.1-2.9-2.1-4.9C454.8,100.3,455.6,98.7,457,97.4L457,97.4z M471.3,115
		l5.7-0.9V92.5c0-4.9-1-8.3-3.1-10.4c-2-2.2-5.3-3.3-9.8-3.3c-1.5,0-3,0.1-4.7,0.3c-1.6,0.3-3.4,0.6-5.4,1.2l-1.6,6.7
		c2.1-0.9,3.9-1.5,5.5-1.9c1.6-0.4,3.2-0.6,4.6-0.6c2.8,0,4.8,0.5,6.1,1.4c1.3,1,1.9,2.5,1.9,4.5V93c-1.3-1.1-2.8-1.9-4.3-2.4
		c-1.5-0.5-3.1-0.7-5-0.7c-3.8,0-6.8,1.2-9.3,3.5c-2.4,2.4-3.6,5.5-3.6,9.2c0,3.8,1.1,6.8,3.5,9c2.3,2.3,5.5,3.3,9.5,3.3
		c2,0,3.8-0.3,5.5-1c1.7-0.7,3.1-1.7,4.4-3V115z"/>
	<path class="st0" d="M491.8,70l-4.3-5.4L483,70l4.5,5.5L491.8,70z M490.7,114V79l-6.6,0.6v35L490.7,114z"/>
	<path class="st0" d="M500.7,113.4c2,1,4.4,1.5,7,1.5c3.4,0,6.2-1,8.4-3.1c2.3-2,3.3-4.6,3.3-7.7c0-2.4-0.7-4.5-2.2-6.2
		c-1.5-1.8-3.4-3-6-3.7c-0.4-0.1-1-0.3-1.8-0.5c-4.7-1.2-7-2.9-7-5c0-1.2,0.5-2.3,1.3-3.1c1-0.7,2.2-1.1,3.7-1.1
		c1.2,0,2.3,0.3,3.4,0.7c1.1,0.5,2.2,1.4,3.6,2.6l3.7-4.2c-1.5-1.6-3.1-2.8-5-3.6c-1.8-0.8-3.7-1.2-5.7-1.2c-3.3,0-6.1,1-8.2,2.9
		c-2.1,2-3.2,4.5-3.2,7.5c0,2.5,0.7,4.5,2,6c1.3,1.6,3.5,2.7,6.4,3.7c0.6,0.2,1.4,0.4,2.5,0.7c3.9,1.1,5.9,2.7,5.9,4.6
		c0,1.5-0.5,2.7-1.6,3.5c-1,0.9-2.4,1.4-4.1,1.4c-1.4,0-2.7-0.3-3.8-0.9c-1.1-0.5-2.3-1.6-3.5-2.9l-4.3,3.8
		C497.1,111.1,498.7,112.5,500.7,113.4L500.7,113.4z"/>
	<path class="st3" d="M311.3-78.7c0-4.8-1.9-9-5.7-12.7c-3.8-3.6-7.8-5.4-12-5.4c-4.8,0-8.7,2.5-11.6,7.4c0.9,3.5,1.4,6.4,1.4,8.8
		c0,2-0.7,4.6-2.1,7.9c-1.4,3.3-2.1,6-2.1,8.1c6.4,0.8,9.4,1.2,9.1,1.2c3.8,0,8.4-1.5,13.8-4.5C308.2-71.3,311.3-74.9,311.3-78.7z
		 M319.2-73.7c0,16.8-11.4,25.1-34.4,25.1c-2.2,0-5.7-1.3-10.3-4c-1.4,2.8-9.5,20.9-24.2,54.4C247.4,0.3,246-2,246-5
		c0-0.5,0.1-0.9,0.3-1.4l-4.4-1.9L255.8-37c6.5-13.6,9.7-24,9.7-30.8c0-1.1-0.1-2.2-0.3-3.3c1.2,0.6,2.1,0.9,2.6,0.9
		c0.6,0,1.4-2.7,2.4-7.9c0.4-2.2,1-5.5,1.8-9.8c3.5-16.5,10.8-24.8,21.8-24.8c7.1,0,13.2,4.7,18.3,14
		C316.8-90.5,319.2-82.1,319.2-73.7z"/>
</g>
</svg>
